<svg data-v-4690bcb8="" xmlns="http://www.w3.org/2000/svg" width="16" height="15" fill="none" viewBox="0 0 16 15"
     class="h-icon" data-component-name="difficulty-challenging" style="height: 16px;">
    <path fill="#C77700" d="m7.5.5-7 3v8l7 3 7-3v-8l-7-3z" opacity=".25"></path>
    <path fill="#C77700" fill-rule="evenodd"
          d="M8.06.101a1.413 1.413 0 0 0-1.049 0L.296 2.788A.471.471 0 0 0 0 3.225v8.16a.942.942 0 0 0 .593.874l6.768 2.707a.47.47 0 0 0 .35 0l6.769-2.707a.942.942 0 0 0 .592-.874v-8.16a.472.472 0 0 0-.295-.437L8.06.1v.001zm-.699.875a.471.471 0 0 1 .35 0l6.118 2.446a.5.5 0 0 1 .314.474l-.013.63v6.858l-5.696 2.278-.698.303a.499.499 0 0 1-.393.002L6.28 13.52.942 11.385V3.92h.001v-.03a.5.5 0 0 1 .314-.468l.489-.195-.007-.003L7.361.976z"
          clip-rule="evenodd"></path>
    <path fill="#C77700" fill-rule="evenodd"
          d="M14.417 4H15v-.8H0V4h.937L7.2 9.368V14H8V9.5L14.417 4zm-6.74 4.723L2.167 4h11.02l-5.51 4.723z"
          clip-rule="evenodd"></path>
</svg>