<svg data-v-4690bcb8="" xmlns="http://www.w3.org/2000/svg" width="15" height="15" fill="none" viewBox="0 0 15 15"
     class="h-icon" data-component-name="difficulty-medium" style="height: 18px;">
    <path fill="#5D72E9" d="m7.464.5-6.966 3v8l6.966 3 6.967-3v-8L7.464.5z" opacity=".25"></path>
    <path fill="#5D72E9" fill-rule="evenodd"
          d="M8.021.101a1.4 1.4 0 0 0-1.043 0L.295 2.788A.47.47 0 0 0 0 3.225v8.16a.945.945 0 0 0 .59.874l6.736 2.707a.465.465 0 0 0 .348 0l6.737-2.707a.938.938 0 0 0 .589-.874v-8.16a.473.473 0 0 0-.294-.437L8.022.1v.001zm-.695.875a.467.467 0 0 1 .348 0l6.089 2.446a.498.498 0 0 1 .312.474l-.012.63v6.858l-5.67 2.278-.694.303a.496.496 0 0 1-.391.002L6.25 13.52.937 11.385V3.92h.001v-.03a.502.502 0 0 1 .313-.468l.487-.195-.007-.003L7.326.976z"
          clip-rule="evenodd"></path>
    <path fill="#5D72E9" fill-rule="evenodd" d="m.995 4 6.967 10-.652.46-6.967-10L.995 4z" clip-rule="evenodd"></path>
    <path fill="#5D72E9" fill-rule="evenodd" d="M14.928 4 7.962 14l-.652-.459 6.967-10 .651.46z"
          clip-rule="evenodd"></path>
</svg>