<svg xmlns="http://www.w3.org/2000/svg" width="32px" height="32px" fill="none" viewBox="0 0 32 32"
     class="h-icon mr-2 h-icon" data-component-name="alt-core-inner">
    <rect width="32" height="32" fill="#000" rx="16"></rect>
    <path fill="#fff" fill-rule="evenodd"
          d="M16 27c.342 0 .758-.162 1.234-.645.479-.486.956-1.24 1.378-2.254C19.456 22.078 20 19.215 20 16c0-.905-.043-1.783-.124-2.622.349.052.69.11 1.02.175.068.79.104 1.608.104 2.447 0 4.734-1.142 8.827-2.801 10.78a11.013 11.013 0 0 0 8.581-8.58c-1.107.94-2.904 1.715-5.115 2.21.055-.347.103-.701.145-1.06a15.581 15.581 0 0 0 2.29-.736c1.014-.423 1.769-.9 2.255-1.38.483-.475.645-.891.645-1.233 0-.342-.162-.758-.645-1.234-.486-.479-1.24-.956-2.254-1.379C22.078 12.545 19.215 12 16 12c-.942 0-1.854.047-2.723.134.051-.35.11-.69.174-1.021A28.448 28.448 0 0 1 16 11c4.734 0 8.827 1.142 10.78 2.801A11.013 11.013 0 0 0 18.2 5.22c.955 1.125 1.74 2.96 2.233 5.218a26.06 26.06 0 0 0-1.06-.145c-.21-.886-.467-1.69-.76-2.394-.422-1.013-.9-1.768-1.378-2.254C16.758 5.162 16.342 5 16 5c-.342 0-.758.162-1.234.645-.479.486-.956 1.24-1.379 2.254C12.545 9.922 12 12.785 12 16c0 .942.047 1.854.134 2.724-.35-.052-.69-.11-1.021-.175A28.448 28.448 0 0 1 11 16c0-4.734 1.142-8.827 2.801-10.78A11.013 11.013 0 0 0 5.22 13.8c1.107-.94 2.904-1.716 5.115-2.21-.055.347-.103.701-.145 1.06-.845.207-1.615.455-2.29.736-1.014.423-1.769.9-2.255 1.38C5.162 15.241 5 15.657 5 16c0 .342.162.758.645 1.234.486.479 1.24.956 2.254 1.378C9.922 19.456 12.785 20 16 20c.942 0 1.854-.047 2.724-.134-.052.35-.11.69-.175 1.021-.822.074-1.674.113-2.549.113-4.734 0-8.827-1.142-10.78-2.801a11.013 11.013 0 0 0 8.58 8.581c-.94-1.107-1.716-2.904-2.21-5.115.347.055.701.103 1.06.145.207.845.455 1.615.736 2.29.423 1.014.9 1.769 1.38 2.255.475.483.891.645 1.233.645zm0 1c6.627 0 12-5.373 12-12S22.627 4 16 4 4 9.373 4 16s5.373 12 12 12zm1.2-12a1.2 1.2 0 1 1-2.4 0 1.2 1.2 0 0 1 2.4 0zm.8 0a2 2 0 1 1-4 0 2 2 0 0 1 4 0z"
          clip-rule="evenodd"></path>
</svg>