<?xml version="1.0" standalone="no"?><!DOCTYPE svg PUBLIC "-//W3C//DTD SVG 1.1//EN" "http://www.w3.org/Graphics/SVG/1.1/DTD/svg11.dtd"><svg t="1674979815934" class="icon" viewBox="0 0 1024 1024" version="1.1" xmlns="http://www.w3.org/2000/svg" p-id="15056" xmlns:xlink="http://www.w3.org/1999/xlink" width="200" height="200"><path d="M421.169231 492.307692a235.323077 235.323077 0 0 0 67.938461-45.292307 225.476923 225.476923 0 0 0 0-325.907693 238.769231 238.769231 0 0 0-167.876923-67.446154 238.769231 238.769231 0 0 0-167.876923 67.446154 225.476923 225.476923 0 0 0 0 325.907693 235.323077 235.323077 0 0 0 66.461539 45.292307A270.769231 270.769231 0 0 0 49.476923 742.4v246.153846a39.876923 39.876923 0 0 0 38.892308 33.969231h459.815384a39.876923 39.876923 0 0 0 38.892308-33.969231v-246.153846A270.769231 270.769231 0 0 0 421.169231 492.307692z" fill="#5E5C5C" p-id="15057"></path><path d="M805.661538 438.646154A235.323077 235.323077 0 0 0 873.107692 393.846154a225.476923 225.476923 0 0 0 0-325.907692 242.215385 242.215385 0 0 0-335.753846 0 233.353846 233.353846 0 0 0-29.538461 34.461538 231.384615 231.384615 0 0 1 23.630769 18.707692 225.476923 225.476923 0 0 1 29.538461 290.953846 251.076923 251.076923 0 0 0 43.323077 26.092308 272.246154 272.246154 0 0 0-102.892307 73.353846 270.276923 270.276923 0 0 1 130.953846 230.892308v227.938462H935.630769a39.876923 39.876923 0 0 0 38.892308-33.969231V689.230769a270.769231 270.769231 0 0 0-168.861539-250.584615z" fill="#5E5C5C" p-id="15058"></path></svg>