<?xml version="1.0" standalone="no"?><!DOCTYPE svg PUBLIC "-//W3C//DTD SVG 1.1//EN" "http://www.w3.org/Graphics/SVG/1.1/DTD/svg11.dtd"><svg t="1674979354347" class="icon" viewBox="0 0 1024 1024" version="1.1" xmlns="http://www.w3.org/2000/svg" p-id="3501" xmlns:xlink="http://www.w3.org/1999/xlink" width="200" height="200"><path d="M510.209214 63.285349c123.364679 0 235.768725 49.951669 316.624241 131.017986l1.706875 2.208295c79.901795 81.043804 129.495306 192.459337 129.495306 315.151703 0 123.668601-50.341548 235.808634-131.202181 317.104171l-2.199085 1.728364c-80.631412 80.063477-191.787024 129.540332-314.425156 129.540332-123.391285 0-235.298004-49.951669-316.405253-131.497916l0 0.228197c-80.609922-81.294514-130.942261-193.435571-130.942261-317.104171 0-123.673717 49.836035-235.814774 130.942261-317.131801l0-0.228197 0.25071 0C275.160897 113.238041 386.817929 63.285349 510.209214 63.285349L510.209214 63.285349zM705.897082 477.132888 705.897082 477.132888 544.655747 477.132888 544.655747 202.379267c0-18.85544-15.156188-34.280758-34.446533-34.280758-18.815531 0-34.450626 15.425318-34.450626 34.280758l0 308.303738 0 0.980327c0 18.85544 15.635095 34.527374 34.450626 34.527374l195.687868 0c19.066241 0 34.205033-15.670911 34.205033-34.527374C740.101091 492.808916 724.963323 477.132888 705.897082 477.132888L705.897082 477.132888zM778.225387 243.023966 778.225387 243.023966c-68.673056-68.552306-163.467025-111.182218-268.016173-111.182218-104.329137 0-199.369723 42.62889-267.545452 111.182218l-0.474814 0c-67.926042 68.808132-110.429065 163.571403-110.429065 268.639367 0 104.562451 42.504046 199.571315 110.903879 268.63425l0 0c68.176752 68.077491 163.216315 111.159706 267.545452 111.159706 103.823624 0 197.891046-42.606377 266.542612-109.932762l1.473561-1.226944c68.399833-69.062935 110.908996-164.071799 110.908996-268.63425 0-104.315834-42.006719-198.600197-109.452831-266.682805L778.225387 243.023966 778.225387 243.023966z" fill="#272636" p-id="3502"></path></svg>