<?xml version="1.0" standalone="no"?><!DOCTYPE svg PUBLIC "-//W3C//DTD SVG 1.1//EN" "http://www.w3.org/Graphics/SVG/1.1/DTD/svg11.dtd"><svg t="1670739993724" class="icon" viewBox="0 0 1024 1024" version="1.1" xmlns="http://www.w3.org/2000/svg" p-id="3497" xmlns:xlink="http://www.w3.org/1999/xlink" width="128" height="128"><path d="M391.45453 186.245821c-180.798762 0-327.366909 111.912859-327.366909 249.956865 0 82.96455 52.92949 156.487054 134.411269 201.951525-0.216941 0.732687-64.906266 121.484865-64.906266 121.484865s197.536982-77.290317 198.080358-77.633125c19.387559 2.736321 39.367613 4.158716 59.781548 4.158716 180.803879 0 327.372026-111.901603 327.372026-249.961982C718.826556 298.15868 572.258409 186.245821 391.45453 186.245821zM672.50967 264.361947c214.150358 218.863706-38.063921 452.070072-243.620553 452.070072 0 0 22.846334 47.847751 203.666586 47.847751 20.408819 0 40.387849-1.433652 59.775408-4.158716 0.543376 0.341784 198.080358 77.633125 198.080358 77.633125s-64.689325-120.751155-64.912405-121.489982c81.486896-45.459355 134.411269-118.986975 134.411269-201.945385C959.911356 376.274806 821.916469 265.339204 672.50967 264.361947z" p-id="3498"></path></svg>